<?xml version="1.0" standalone="no"?>
<!DOCTYPE svg PUBLIC "-//W3C//DTD SVG 20010904//EN"
 "http://www.w3.org/TR/2001/REC-SVG-20010904/DTD/svg10.dtd">
<svg version="1.0" xmlns="http://www.w3.org/2000/svg"
 width="446.000000pt" height="446.000000pt" viewBox="0 0 446.000000 446.000000"
 preserveAspectRatio="xMidYMid meet">
<metadata>
Created by potrace 1.11, written by Peter Selinger 2001-2013
</metadata>
<g transform="translate(0.000000,446.000000) scale(0.100000,-0.100000)"
fill="#000000" stroke="none">
<path d="M1130 3868 l0 -278 -277 -2 -278 -3 -2 -265 c0 -146 -2 -270 -2 -277
-1 -9 -59 -12 -223 -12 -123 0 -248 0 -278 0 l-55 -1 2 -812 c1 -447 2 -822 2
-834 1 -20 5 -20 275 -20 237 1 275 -1 278 -14 2 -8 3 -133 3 -278 l-1 -262
25 -1 c14 0 140 -1 279 -1 l252 -1 0 -263 0 -264 1110 0 1110 0 0 264 0 264
248 0 c136 0 261 1 278 1 l30 1 -1 263 c0 144 1 269 3 277 3 13 41 15 275 15
l272 0 3 833 2 832 -67 1 c-38 0 -161 0 -275 0 -149 1 -207 4 -210 12 -2 7 -3
132 -3 280 l1 267 -278 0 -278 0 0 278 0 277 -1110 0 -1110 0 0 -277z"/>
</g>
</svg>
