<svg width="27" height="30" viewBox="0 0 27 30" fill="none" xmlns="http://www.w3.org/2000/svg">
<g id="Avatar" clip-path="url(#clip0)">
<rect id="Rectangle" x="16" width="1" height="1" fill="#211D1D"/>
<rect id="Rectangle_2" x="17" width="1" height="1" fill="#211D1D"/>
<rect id="Rectangle_3" x="18" width="1" height="1" fill="#211D1D"/>
<rect id="Rectangle_4" x="19" y="1" width="1" height="1" fill="#211D1D"/>
<rect id="Rectangle_5" x="19" y="2" width="1" height="1" fill="#211D1D"/>
<rect id="Rectangle_6" x="19" y="3" width="1" height="1" fill="#211D1D"/>
<rect id="Rectangle_7" x="19" y="4" width="1" height="1" fill="#211D1D"/>
<rect id="Rectangle_8" x="17" y="5" width="1" height="1" fill="#211D1D"/>
<rect id="Rectangle_9" x="18" y="5" width="1" height="1" fill="#211D1D"/>
<rect id="Rectangle_10" x="18" y="6" width="1" height="1" fill="#211D1D"/>
<rect id="Rectangle_11" x="18" y="7" width="1" height="1" fill="#211D1D"/>
<rect id="Rectangle_12" x="18" y="8" width="1" height="1" fill="#211D1D"/>
<rect id="Rectangle_13" x="12" y="8" width="1" height="1" fill="#211D1D"/>
<rect id="Rectangle_14" x="16" y="8" width="1" height="1" fill="#211D1D"/>
<rect id="Rectangle_15" x="18" y="9" width="1" height="1" fill="#211D1D"/>
<rect id="Rectangle_16" x="18" y="10" width="1" height="1" fill="#211D1D"/>
<rect id="Rectangle_17" x="18" y="11" width="1" height="1" fill="#211D1D"/>
<rect id="Rectangle_18" x="18" y="12" width="1" height="1" fill="#211D1D"/>
<rect id="Rectangle_19" x="18" y="13" width="1" height="1" fill="#211D1D"/>
<rect id="Rectangle_20" x="18" y="14" width="1" height="1" fill="#211D1D"/>
<rect id="Rectangle_21" x="18" y="15" width="1" height="1" fill="#211D1D"/>
<rect id="Rectangle_22" x="19" y="15" width="1" height="1" fill="#211D1D"/>
<rect id="Rectangle_23" x="20" y="15" width="1" height="1" fill="#211D1D"/>
<rect id="Rectangle_24" x="20" y="14" width="1" height="1" fill="#211D1D"/>
<rect id="Rectangle_25" x="21" y="14" width="1" height="1" fill="#211D1D"/>
<rect id="Rectangle_26" x="21" y="13" width="1" height="1" fill="#211D1D"/>
<rect id="Rectangle_27" x="21" y="12" width="1" height="1" fill="#211D1D"/>
<rect id="Rectangle_28" x="22" y="11" width="1" height="1" fill="#211D1D"/>
<rect id="Rectangle_29" x="23" y="10" width="1" height="1" fill="#211D1D"/>
<rect id="Rectangle_30" x="24" y="10" width="1" height="1" fill="#211D1D"/>
<rect id="Rectangle_31" x="25" y="10" width="1" height="1" fill="#211D1D"/>
<rect id="Rectangle_32" x="26" y="12" width="1" height="1" fill="#211D1D"/>
<rect id="Rectangle_33" x="26" y="11" width="1" height="1" fill="#211D1D"/>
<rect id="Rectangle_34" x="25" y="13" width="1" height="1" fill="#211D1D"/>
<rect id="Rectangle_35" x="24" y="13" width="1" height="1" fill="#211D1D"/>
<rect id="Rectangle_36" x="23" y="15" width="1" height="1" fill="#211D1D"/>
<rect id="Rectangle_37" x="23" y="16" width="1" height="1" fill="#211D1D"/>
<rect id="Rectangle_38" x="23" y="17" width="1" height="1" fill="#211D1D"/>
<rect id="Rectangle_39" x="23" y="18" width="1" height="1" fill="#211D1D"/>
<rect id="Rectangle_40" x="22" y="19" width="1" height="1" fill="#211D1D"/>
<rect id="Rectangle_41" x="22" y="20" width="1" height="1" fill="#211D1D"/>
<rect id="Rectangle_42" x="21" y="21" width="1" height="1" fill="#211D1D"/>
<rect id="Rectangle_43" x="20" y="22" width="1" height="1" fill="#211D1D"/>
<rect id="Rectangle_44" x="19" y="22" width="1" height="1" fill="#211D1D"/>
<rect id="Rectangle_45" x="18" y="22" width="1" height="1" fill="#211D1D"/>
<rect id="Rectangle_46" x="19" y="21" width="1" height="1" fill="#211D1D"/>
<rect id="Rectangle_47" x="17" y="23" width="1" height="1" fill="#211D1D"/>
<rect id="Rectangle_48" x="15" y="25" width="1" height="1" fill="#211D1D"/>
<rect id="Rectangle_49" x="15" y="26" width="1" height="1" fill="#211D1D"/>
<rect id="Rectangle_50" x="16" y="26" width="1" height="1" fill="#211D1D"/>
<rect id="Rectangle_51" x="17" y="27" width="1" height="1" fill="#211D1D"/>
<rect id="Rectangle_52" x="18" y="28" width="1" height="1" fill="#211D1D"/>
<rect id="Rectangle_53" x="18" y="29" width="1" height="1" fill="#211D1D"/>
<rect id="Rectangle_54" x="14" y="29" width="1" height="1" fill="#EEEEEE"/>
<rect id="Rectangle_55" x="15" y="29" width="1" height="1" fill="#EEEEEE"/>
<rect id="Rectangle_56" x="16" y="29" width="1" height="1" fill="#EEEEEE"/>
<rect id="Rectangle_57" x="17" y="29" width="1" height="1" fill="#EEEEEE"/>
<rect id="Rectangle_58" x="23" y="29" width="1" height="1" fill="#EEEEEE"/>
<rect id="Rectangle_59" x="3" y="29" width="1" height="1" fill="#EEEEEE"/>
<rect id="Rectangle_60" x="2" y="29" width="1" height="1" fill="#EEEEEE"/>
<rect id="Rectangle_61" x="1" y="29" width="1" height="1" fill="#EEEEEE"/>
<rect id="Rectangle_62" y="29" width="1" height="1" fill="#EEEEEE"/>
<rect id="Rectangle_63" x="24" y="29" width="1" height="1" fill="#EEEEEE"/>
<rect id="Rectangle_64" x="25" y="29" width="1" height="1" fill="#EEEEEE"/>
<rect id="Rectangle_65" x="26" y="29" width="1" height="1" fill="#EEEEEE"/>
<rect id="Rectangle_66" x="9" y="29" width="1" height="1" fill="#EEEEEE"/>
<rect id="Rectangle_67" x="8" y="26" width="1" height="1" fill="white"/>
<rect id="Rectangle_68" x="9" y="26" width="1" height="1" fill="white"/>
<rect id="Rectangle_69" x="10" y="26" width="1" height="1" fill="white"/>
<rect id="Rectangle_70" x="11" y="26" width="1" height="1" fill="white"/>
<rect id="Rectangle_71" x="12" y="26" width="1" height="1" fill="white"/>
<rect id="Rectangle_72" x="13" y="26" width="1" height="1" fill="white"/>
<rect id="Rectangle_73" x="14" y="26" width="1" height="1" fill="white"/>
<rect id="Rectangle_74" x="9" y="27" width="1" height="1" fill="white"/>
<rect id="Rectangle_75" x="10" y="27" width="1" height="1" fill="white"/>
<rect id="Rectangle_76" x="11" y="27" width="1" height="1" fill="white"/>
<rect id="Rectangle_77" x="12" y="27" width="1" height="1" fill="white"/>
<rect id="Rectangle_78" x="13" y="27" width="1" height="1" fill="white"/>
<rect id="Rectangle_79" x="22" y="13" width="1" height="1" fill="white"/>
<rect id="Rectangle_80" x="22" y="12" width="1" height="1" fill="white"/>
<rect id="Rectangle_81" x="23" y="13" width="1" height="1" fill="white"/>
<rect id="Rectangle_82" x="23" y="12" width="1" height="1" fill="white"/>
<rect id="Rectangle_83" x="23" y="11" width="1" height="1" fill="white"/>
<rect id="Rectangle_84" x="24" y="11" width="1" height="1" fill="white"/>
<rect id="Rectangle_85" x="25" y="11" width="1" height="1" fill="white"/>
<rect id="Rectangle_86" x="25" y="12" width="1" height="1" fill="white"/>
<rect id="Rectangle_87" x="24" y="12" width="1" height="1" fill="white"/>
<rect id="Rectangle_88" x="14" y="27" width="1" height="1" fill="white"/>
<rect id="Rectangle_89" x="10" y="28" width="1" height="1" fill="white"/>
<rect id="Rectangle_90" width="1" height="1" transform="matrix(-1 0 0 1 11 28)" fill="white"/>
<rect id="Rectangle_91" width="1" height="1" transform="matrix(-1 0 0 1 12 28)" fill="white"/>
<rect id="Rectangle_92" width="1" height="1" transform="matrix(-1 0 0 1 13 28)" fill="white"/>
<rect id="Rectangle_93" width="1" height="1" transform="matrix(-1 0 0 1 14 28)" fill="white"/>
<rect id="Rectangle_94" width="1" height="1" transform="matrix(-1 0 0 1 14 25)" fill="white"/>
<rect id="Rectangle_95" width="1" height="1" transform="matrix(-1 0 0 1 15 25)" fill="white"/>
<rect id="Rectangle_96" width="1" height="1" transform="matrix(-1 0 0 1 15 24)" fill="white"/>
<rect id="Rectangle_97" width="1" height="1" transform="matrix(-1 0 0 1 16 24)" fill="white"/>
<rect id="Rectangle_98" width="1" height="1" transform="matrix(-1 0 0 1 16 23)" fill="white"/>
<rect id="Rectangle_99" width="1" height="1" transform="matrix(-1 0 0 1 17 23)" fill="white"/>
<rect id="Rectangle_100" width="1" height="1" transform="matrix(-1 0 0 1 14 23)" fill="white"/>
<rect id="Rectangle_101" width="1" height="1" transform="matrix(-1 0 0 1 15 22)" fill="white"/>
<rect id="Rectangle_102" width="1" height="1" transform="matrix(-1 0 0 1 16 21)" fill="white"/>
<rect id="Rectangle_103" width="1" height="1" transform="matrix(-1 0 0 1 17 20)" fill="white"/>
<rect id="Rectangle_104" width="1" height="1" transform="matrix(-1 0 0 1 17 22)" fill="white"/>
<rect id="Rectangle_105" width="1" height="1" transform="matrix(-1 0 0 1 18 22)" fill="white"/>
<rect id="Rectangle_106" width="1" height="1" transform="matrix(-1 0 0 1 18 21)" fill="white"/>
<rect id="Rectangle_107" width="1" height="1" transform="matrix(-1 0 0 1 19 21)" fill="white"/>
<rect id="Rectangle_108" width="1" height="1" transform="matrix(-1 0 0 1 13 21)" fill="white"/>
<rect id="Rectangle_109" width="1" height="1" transform="matrix(-1 0 0 1 14 21)" fill="white"/>
<rect id="Rectangle_110" width="1" height="1" transform="matrix(-1 0 0 1 14 20)" fill="white"/>
<rect id="Rectangle_111" width="1" height="1" transform="matrix(-1 0 0 1 15 20)" fill="white"/>
<rect id="Rectangle_112" width="1" height="1" transform="matrix(-1 0 0 1 15 19)" fill="white"/>
<rect id="Rectangle_113" width="1" height="1" transform="matrix(-1 0 0 1 16 19)" fill="white"/>
<rect id="Rectangle_114" width="1" height="1" transform="matrix(-1 0 0 1 7 29)" fill="#4C454F"/>
<rect id="Rectangle_115" width="1" height="1" transform="matrix(-1 0 0 1 8 29)" fill="#4C454F"/>
<rect id="Rectangle_116" width="1" height="1" transform="matrix(-1 0 0 1 20 29)" fill="#4C454F"/>
<rect id="Rectangle_117" width="1" height="1" transform="matrix(-1 0 0 1 21 29)" fill="#4C454F"/>
<rect id="Rectangle_118" width="1" height="1" transform="matrix(-1 0 0 1 22 29)" fill="#4C454F"/>
<rect id="Rectangle_119" width="1" height="1" transform="matrix(-1 0 0 1 20 28)" fill="#4C454F"/>
<rect id="Rectangle_120" width="1" height="1" transform="matrix(-1 0 0 1 21 28)" fill="#4C454F"/>
<rect id="Rectangle_121" width="1" height="1" transform="matrix(-1 0 0 1 18 24)" fill="#953D3D"/>
<rect id="Rectangle_122" width="1" height="1" transform="matrix(-1 0 0 1 18 25)" fill="#953D3D"/>
<rect id="Rectangle_123" width="1" height="1" transform="matrix(-1 0 0 1 19 25)" fill="#953D3D"/>
<rect id="Rectangle_124" width="1" height="1" transform="matrix(-1 0 0 1 19 26)" fill="#953D3D"/>
<rect id="Rectangle_125" width="1" height="1" transform="matrix(-1 0 0 1 20 26)" fill="#953D3D"/>
<rect id="Rectangle_126" width="1" height="1" transform="matrix(-1 0 0 1 20 27)" fill="#953D3D"/>
<rect id="Rectangle_127" width="1" height="1" transform="matrix(-1 0 0 1 19 27)" fill="#742C33"/>
<rect id="Rectangle_128" width="1" height="1" transform="matrix(-1 0 0 1 18 26)" fill="#742C33"/>
<rect id="Rectangle_129" width="1" height="1" transform="matrix(-1 0 0 1 7 27)" fill="#742C33"/>
<rect id="Rectangle_130" width="1" height="1" transform="matrix(-1 0 0 1 17 25)" fill="#742C33"/>
<rect id="Rectangle_131" width="1" height="1" transform="matrix(-1 0 0 1 21 27)" fill="#742C33"/>
<rect id="Rectangle_132" width="1" height="1" transform="matrix(-1 0 0 1 20 25)" fill="#BA4B41"/>
<rect id="Rectangle_133" width="1" height="1" transform="matrix(-1 0 0 1 8 27)" fill="#BA4B41"/>
<rect id="Rectangle_134" width="1" height="1" transform="matrix(-1 0 0 1 19 24)" fill="#BA4B41"/>
<rect id="Rectangle_135" width="1" height="1" transform="matrix(-1 0 0 1 8 28)" fill="#4C454F"/>
<rect id="Rectangle_136" width="1" height="1" transform="matrix(-1 0 0 1 7 28)" fill="#4C454F"/>
<rect id="Rectangle_137" width="1" height="1" transform="matrix(-1 0 0 1 6 29)" fill="#4C454F"/>
<rect id="Rectangle_138" width="1" height="1" transform="matrix(-1 0 0 1 6 28)" fill="#5A535F"/>
<rect id="Rectangle_139" width="1" height="1" transform="matrix(-1 0 0 1 22 28)" fill="#5A535F"/>
<rect id="Rectangle_140" x="15" y="27" width="1" height="1" fill="#211D1D"/>
<rect id="Rectangle_141" x="14" y="28" width="1" height="1" fill="#211D1D"/>
<rect id="Rectangle_142" x="13" y="29" width="1" height="1" fill="#211D1D"/>
<rect id="Rectangle_143" x="12" y="29" width="1" height="1" fill="#211D1D"/>
<rect id="Rectangle_144" x="11" y="29" width="1" height="1" fill="#211D1D"/>
<rect id="Rectangle_145" x="10" y="29" width="1" height="1" fill="#211D1D"/>
<rect id="Rectangle_146" x="9" y="28" width="1" height="1" fill="#211D1D"/>
<rect id="Rectangle_147" x="8" y="27" width="1" height="1" fill="#211D1D"/>
<rect id="Rectangle_148" x="8" y="28" width="1" height="1" fill="#211D1D"/>
<rect id="Rectangle_149" x="8" y="29" width="1" height="1" fill="#211D1D"/>
<rect id="Rectangle_150" x="4" y="29" width="1" height="1" fill="#211D1D"/>
<rect id="Rectangle_151" x="4" y="28" width="1" height="1" fill="#211D1D"/>
<rect id="Rectangle_152" x="5" y="27" width="1" height="1" fill="#211D1D"/>
<rect id="Rectangle_153" x="6" y="26" width="1" height="1" fill="#211D1D"/>
<rect id="Rectangle_154" x="7" y="25" width="1" height="1" fill="#211D1D"/>
<rect id="Rectangle_155" x="7" y="24" width="1" height="1" fill="#211D1D"/>
<rect id="Rectangle_156" x="7" y="23" width="1" height="1" fill="#211D1D"/>
<rect id="Rectangle_157" x="6" y="23" width="1" height="1" fill="#211D1D"/>
<rect id="Rectangle_158" x="5" y="22" width="1" height="1" fill="#211D1D"/>
<rect id="Rectangle_159" x="4" y="21" width="1" height="1" fill="#211D1D"/>
<rect id="Rectangle_160" x="4" y="20" width="1" height="1" fill="#211D1D"/>
<rect id="Rectangle_161" x="4" y="19" width="1" height="1" fill="#211D1D"/>
<rect id="Rectangle_162" x="4" y="18" width="1" height="1" fill="#211D1D"/>
<rect id="Rectangle_163" x="5" y="17" width="1" height="1" fill="#211D1D"/>
<rect id="Rectangle_164" x="5" y="16" width="1" height="1" fill="#211D1D"/>
<rect id="Rectangle_165" x="6" y="15" width="1" height="1" fill="#211D1D"/>
<rect id="Rectangle_166" x="7" y="14" width="1" height="1" fill="#211D1D"/>
<rect id="Rectangle_167" x="8" y="14" width="1" height="1" fill="#211D1D"/>
<rect id="Rectangle_168" x="8" y="13" width="1" height="1" fill="#211D1D"/>
<rect id="Rectangle_169" x="8" y="12" width="1" height="1" fill="#211D1D"/>
<rect id="Rectangle_170" x="8" y="11" width="1" height="1" fill="#211D1D"/>
<rect id="Rectangle_171" x="7" y="10" width="1" height="1" fill="#211D1D"/>
<rect id="Rectangle_172" x="7" y="9" width="1" height="1" fill="#211D1D"/>
<rect id="Rectangle_173" x="8" y="8" width="1" height="1" fill="#211D1D"/>
<rect id="Rectangle_174" x="8" y="7" width="1" height="1" fill="#211D1D"/>
<rect id="Rectangle_175" x="8" y="6" width="1" height="1" fill="#211D1D"/>
<rect id="Rectangle_176" x="8" y="5" width="1" height="1" fill="#211D1D"/>
<rect id="Rectangle_177" x="8" y="4" width="1" height="1" fill="#211D1D"/>
<rect id="Rectangle_178" x="9" y="3" width="1" height="1" fill="#211D1D"/>
<rect id="Rectangle_179" x="10" y="2" width="1" height="1" fill="#211D1D"/>
<rect id="Rectangle_180" x="11" y="2" width="1" height="1" fill="#211D1D"/>
<rect id="Rectangle_181" x="12" y="1" width="1" height="1" fill="#211D1D"/>
<rect id="Rectangle_182" x="13" y="1" width="1" height="1" fill="#211D1D"/>
<rect id="Rectangle_183" x="14" y="1" width="1" height="1" fill="#211D1D"/>
<rect id="Rectangle_184" x="15" y="1" width="1" height="1" fill="#211D1D"/>
<rect id="Rectangle_185" x="16" y="1" width="1" height="1" fill="#211D1D"/>
<rect id="Rectangle_186" x="14" y="17" width="1" height="1" fill="#211D1D"/>
<rect id="Rectangle_187" x="15" y="17" width="1" height="1" fill="#211D1D"/>
<rect id="Rectangle_188" x="16" y="17" width="1" height="1" fill="#211D1D"/>
<rect id="Rectangle_189" x="16" y="18" width="1" height="1" fill="#211D1D"/>
<rect id="Rectangle_190" x="14" y="21" width="1" height="1" fill="#211D1D"/>
<rect id="Rectangle_191" x="12" y="25" width="1" height="1" fill="#211D1D"/>
<rect id="Rectangle_192" x="15" y="22" width="1" height="1" fill="#211D1D"/>
<rect id="Rectangle_193" x="17" y="17" width="1" height="1" fill="#211D1D"/>
<rect id="Rectangle_194" x="7" y="26" width="1" height="1" fill="#211D1D"/>
<rect id="Rectangle_195" x="16" y="24" width="1" height="1" fill="#211D1D"/>
<rect id="Rectangle_196" x="18" y="23" width="1" height="1" fill="#211D1D"/>
<rect id="Rectangle_197" x="19" y="24" width="1" height="1" fill="#211D1D"/>
<rect id="Rectangle_198" x="20" y="25" width="1" height="1" fill="#211D1D"/>
<rect id="Rectangle_199" x="20" y="26" width="1" height="1" fill="#211D1D"/>
<rect id="Rectangle_200" x="21" y="27" width="1" height="1" fill="#211D1D"/>
<rect id="Rectangle_201" x="22" y="28" width="1" height="1" fill="#211D1D"/>
<rect id="Rectangle_202" x="22" y="29" width="1" height="1" fill="#211D1D"/>
<rect id="Rectangle_203" x="22" y="14" width="1" height="1" fill="#211D1D"/>
<rect id="Rectangle_204" x="23" y="14" width="1" height="1" fill="#211D1D"/>
<rect id="Rectangle_205" x="18" y="16" width="1" height="1" fill="#211D1D"/>
<rect id="Rectangle_206" x="12" y="9" width="1" height="1" fill="#1A75FF"/>
<rect id="Rectangle_207" x="16" y="9" width="1" height="1" fill="#1A75FF"/>
<rect id="Rectangle_208" x="17" y="11" width="1" height="1" fill="#C7936B"/>
<rect id="Rectangle_209" x="12" y="11" width="1" height="1" fill="#C7936B"/>
<rect id="Rectangle_210" x="10" y="11" width="1" height="1" fill="#C7936B"/>
<rect id="Rectangle_211" x="10" y="12" width="1" height="1" fill="#C7936B"/>
<rect id="Rectangle_212" x="11" y="12" width="1" height="1" fill="#C7936B"/>
<rect id="Rectangle_213" x="13" y="13" width="1" height="1" fill="#C7936B"/>
<rect id="Rectangle_214" x="16" y="13" width="1" height="1" fill="#C7936B"/>
<rect id="Rectangle_215" x="10" y="10" width="1" height="1" fill="#C7936B"/>
<rect id="Rectangle_216" x="8" y="10" width="1" height="1" fill="#C7936B"/>
<rect id="Rectangle_217" x="9" y="9" width="1" height="1" fill="#C7936B"/>
<rect id="Rectangle_218" x="11" y="6" width="1" height="1" fill="#C7936B"/>
<rect id="Rectangle_219" width="1" height="1" transform="matrix(1 0 0 -1 12 7)" fill="#C7936B"/>
<rect id="Rectangle_220" width="1" height="1" transform="matrix(1 0 0 -1 13 7)" fill="#C7936B"/>
<rect id="Rectangle_221" width="1" height="1" transform="matrix(1 0 0 -1 14 7)" fill="#C7936B"/>
<rect id="Rectangle_222" width="1" height="1" transform="matrix(1 0 0 -1 15 7)" fill="#C7936B"/>
<rect id="Rectangle_223" width="1" height="1" transform="matrix(1 0 0 -1 16 7)" fill="#C7936B"/>
<rect id="Rectangle_224" width="1" height="1" transform="matrix(1 0 0 -1 17 7)" fill="#C7936B"/>
<rect id="Rectangle_225" width="1" height="1" transform="matrix(1 0 0 -1 17 8)" fill="#C7936B"/>
<rect id="Rectangle_226" x="19" y="17" width="1" height="1" fill="#A5644A"/>
<rect id="Rectangle_227" width="1" height="1" transform="matrix(1 0 0 -1 18 19)" fill="#A5644A"/>
<rect id="Rectangle_228" width="1" height="1" transform="matrix(1 0 0 -1 17 20)" fill="#A5644A"/>
<rect id="Rectangle_229" x="21" y="16" width="1" height="1" fill="#C7936B"/>
<rect id="Rectangle_230" x="22" y="17" width="1" height="1" fill="#C7936B"/>
<rect id="Rectangle_231" x="22" y="18" width="1" height="1" fill="#C7936B"/>
<rect id="Rectangle_232" x="21" y="19" width="1" height="1" fill="#C7936B"/>
<rect id="Rectangle_233" x="20" y="20" width="1" height="1" fill="#C7936B"/>
<rect id="Rectangle_234" x="20" y="21" width="1" height="1" fill="#C7936B"/>
<rect id="Rectangle_235" x="21" y="20" width="1" height="1" fill="#C7936B"/>
<rect id="Rectangle_236" x="22" y="19" width="1" height="1" fill="#C7936B"/>
<rect id="Rectangle_237" x="11" y="7" width="1" height="1" fill="#E9BE99"/>
<rect id="Rectangle_238" x="9" y="10" width="1" height="1" fill="#86533E"/>
<rect id="Rectangle_239" x="9" y="11" width="1" height="1" fill="#86533E"/>
<rect id="Rectangle_240" x="9" y="12" width="1" height="1" fill="#86533E"/>
<rect id="Rectangle_241" x="9" y="13" width="1" height="1" fill="#86533E"/>
<rect id="Rectangle_242" x="10" y="13" width="1" height="1" fill="#86533E"/>
<rect id="Rectangle_243" x="11" y="13" width="1" height="1" fill="#86533E"/>
<rect id="Rectangle_244" x="12" y="13" width="1" height="1" fill="#86533E"/>
<rect id="Rectangle_245" x="14" y="13" width="1" height="1" fill="#86533E"/>
<rect id="Rectangle_246" x="12" y="12" width="1" height="1" fill="#86533E"/>
<rect id="Rectangle_247" x="13" y="11" width="1" height="1" fill="#86533E"/>
<rect id="Rectangle_248" x="14" y="11" width="1" height="1" fill="#86533E"/>
<rect id="Rectangle_249" x="15" y="11" width="1" height="1" fill="#86533E"/>
<rect id="Rectangle_250" x="16" y="11" width="1" height="1" fill="#86533E"/>
<rect id="Rectangle_251" x="17" y="12" width="1" height="1" fill="#86533E"/>
<rect id="Rectangle_252" x="17" y="18" width="1" height="1" fill="#86533E"/>
<rect id="Rectangle_253" x="18" y="17" width="1" height="1" fill="#86533E"/>
<rect id="Rectangle_254" x="19" y="16" width="1" height="1" fill="#86533E"/>
<rect id="Rectangle_255" x="15" y="13" width="1" height="1" fill="#86533E"/>
<rect id="Rectangle_256" x="17" y="13" width="1" height="1" fill="#86533E"/>
<rect id="Rectangle_257" x="10" y="14" width="1" height="1" fill="#86533E"/>
<rect id="Rectangle_258" x="11" y="14" width="1" height="1" fill="#86533E"/>
<rect id="Rectangle_259" x="12" y="14" width="1" height="1" fill="#86533E"/>
<rect id="Rectangle_260" x="13" y="14" width="1" height="1" fill="#86533E"/>
<rect id="Rectangle_261" x="14" y="14" width="1" height="1" fill="#86533E"/>
<rect id="Rectangle_262" x="15" y="14" width="1" height="1" fill="#86533E"/>
<rect id="Rectangle_263" x="16" y="14" width="1" height="1" fill="#86533E"/>
<rect id="Rectangle_264" x="17" y="14" width="1" height="1" fill="#86533E"/>
<rect id="Rectangle_265" x="12" y="15" width="1" height="1" fill="#86533E"/>
<rect id="Rectangle_266" x="13" y="15" width="1" height="1" fill="#86533E"/>
<rect id="Rectangle_267" x="14" y="15" width="1" height="1" fill="#86533E"/>
<rect id="Rectangle_268" x="15" y="15" width="1" height="1" fill="#86533E"/>
<rect id="Rectangle_269" x="16" y="15" width="1" height="1" fill="#86533E"/>
<rect id="Rectangle_270" x="9" y="5" width="1" height="1" fill="#86533E"/>
<rect id="Rectangle_271" x="10" y="5" width="1" height="1" fill="#86533E"/>
<rect id="Rectangle_272" x="12" y="7" width="1" height="1" fill="#E9BE99"/>
<rect id="Rectangle_273" x="13" y="7" width="1" height="1" fill="#E9BE99"/>
<rect id="Rectangle_274" x="14" y="7" width="1" height="1" fill="#E9BE99"/>
<rect id="Rectangle_275" x="15" y="7" width="1" height="1" fill="#E9BE99"/>
<rect id="Rectangle_276" x="16" y="7" width="1" height="1" fill="#E9BE99"/>
<rect id="Rectangle_277" x="10" y="8" width="1" height="1" fill="#E9BE99"/>
<rect id="Rectangle_278" x="11" y="8" width="1" height="1" fill="#E9BE99"/>
<rect id="Rectangle_279" x="13" y="8" width="1" height="1" fill="#E9BE99"/>
<rect id="Rectangle_280" x="14" y="8" width="1" height="1" fill="#E9BE99"/>
<rect id="Rectangle_281" x="15" y="8" width="1" height="1" fill="#E9BE99"/>
<rect id="Rectangle_282" x="17" y="8" width="1" height="1" fill="#E9BE99"/>
<rect id="Rectangle_283" x="8" y="9" width="1" height="1" fill="#E9BE99"/>
<rect id="Rectangle_284" x="10" y="9" width="1" height="1" fill="#E9BE99"/>
<rect id="Rectangle_285" x="11" y="9" width="1" height="1" fill="#E9BE99"/>
<rect id="Rectangle_286" x="13" y="9" width="1" height="1" fill="#E9BE99"/>
<rect id="Rectangle_287" x="15" y="9" width="1" height="1" fill="#E9BE99"/>
<rect id="Rectangle_288" x="14" y="9" width="1" height="1" fill="#E9BE99"/>
<rect id="Rectangle_289" x="17" y="9" width="1" height="1" fill="#E9BE99"/>
<rect id="Rectangle_290" x="11" y="10" width="1" height="1" fill="#E9BE99"/>
<rect id="Rectangle_291" x="12" y="10" width="1" height="1" fill="#E9BE99"/>
<rect id="Rectangle_292" x="13" y="10" width="1" height="1" fill="#E9BE99"/>
<rect id="Rectangle_293" x="14" y="10" width="1" height="1" fill="#E9BE99"/>
<rect id="Rectangle_294" x="15" y="10" width="1" height="1" fill="#E9BE99"/>
<rect id="Rectangle_295" x="16" y="10" width="1" height="1" fill="#E9BE99"/>
<rect id="Rectangle_296" x="17" y="10" width="1" height="1" fill="#E9BE99"/>
<rect id="Rectangle_297" x="11" y="11" width="1" height="1" fill="#E9BE99"/>
<rect id="Rectangle_298" x="13" y="12" width="1" height="1" fill="#E9BE99"/>
<rect id="Rectangle_299" x="14" y="12" width="1" height="1" fill="#E9BE99"/>
<rect id="Rectangle_300" x="15" y="12" width="1" height="1" fill="#E9BE99"/>
<rect id="Rectangle_301" x="16" y="12" width="1" height="1" fill="#E9BE99"/>
<rect id="Rectangle_302" x="21" y="15" width="1" height="1" fill="#E9BE99"/>
<rect id="Rectangle_303" x="22" y="15" width="1" height="1" fill="#E9BE99"/>
<rect id="Rectangle_304" x="22" y="16" width="1" height="1" fill="#E9BE99"/>
<rect id="Rectangle_305" x="21" y="17" width="1" height="1" fill="#E9BE99"/>
<rect id="Rectangle_306" x="21" y="18" width="1" height="1" fill="#E9BE99"/>
<rect id="Rectangle_307" x="20" y="19" width="1" height="1" fill="#E9BE99"/>
<rect id="Rectangle_308" x="19" y="20" width="1" height="1" fill="#E9BE99"/>
<rect id="Rectangle_309" x="6" y="17" width="1" height="1" fill="#E9BE99"/>
<rect id="Rectangle_310" x="6" y="18" width="1" height="1" fill="#E9BE99"/>
<rect id="Rectangle_311" x="5" y="18" width="1" height="1" fill="#E9BE99"/>
<rect id="Rectangle_312" x="5" y="19" width="1" height="1" fill="#E9BE99"/>
<rect id="Rectangle_313" x="6" y="20" width="1" height="1" fill="#E9BE99"/>
<rect id="Rectangle_314" x="7" y="21" width="1" height="1" fill="#E9BE99"/>
<rect id="Rectangle_315" x="7" y="20" width="1" height="1" fill="#E9BE99"/>
<rect id="Rectangle_316" x="8" y="21" width="1" height="1" fill="#E9BE99"/>
<rect id="Rectangle_317" x="9" y="22" width="1" height="1" fill="#E9BE99"/>
<rect id="Rectangle_318" x="10" y="22" width="1" height="1" fill="#E9BE99"/>
<rect id="Rectangle_319" x="9" y="21" width="1" height="1" fill="#E9BE99"/>
<rect id="Rectangle_320" x="10" y="21" width="1" height="1" fill="#E9BE99"/>
<rect id="Rectangle_321" x="11" y="22" width="1" height="1" fill="#E9BE99"/>
<rect id="Rectangle_322" x="8" y="20" width="1" height="1" fill="#E9BE99"/>
<rect id="Rectangle_323" x="20" y="18" width="1" height="1" fill="#E9BE99"/>
<rect id="Rectangle_324" x="19" y="19" width="1" height="1" fill="#E9BE99"/>
<rect id="Rectangle_325" x="7" y="18" width="1" height="1" fill="#C7936B"/>
<rect id="Rectangle_326" x="6" y="19" width="1" height="1" fill="#C7936B"/>
<rect id="Rectangle_327" x="5" y="20" width="1" height="1" fill="#C7936B"/>
<rect id="Rectangle_328" x="5" y="21" width="1" height="1" fill="#C7936B"/>
<rect id="Rectangle_329" x="6" y="21" width="1" height="1" fill="#C7936B"/>
<rect id="Rectangle_330" x="6" y="22" width="1" height="1" fill="#C7936B"/>
<rect id="Rectangle_331" x="7" y="22" width="1" height="1" fill="#C7936B"/>
<rect id="Rectangle_332" x="8" y="22" width="1" height="1" fill="#C7936B"/>
<rect id="Rectangle_333" x="8" y="23" width="1" height="1" fill="#C7936B"/>
<rect id="Rectangle_334" x="9" y="23" width="1" height="1" fill="#C7936B"/>
<rect id="Rectangle_335" x="10" y="23" width="1" height="1" fill="#C7936B"/>
<rect id="Rectangle_336" x="11" y="23" width="1" height="1" fill="#C7936B"/>
<rect id="Rectangle_337" x="9" y="15" width="1" height="1" fill="#3D2034"/>
<rect id="Rectangle_338" x="10" y="16" width="1" height="1" fill="#3D2034"/>
<rect id="Rectangle_339" x="11" y="17" width="1" height="1" fill="#3D2034"/>
<rect id="Rectangle_340" x="12" y="17" width="1" height="1" fill="#3D2034"/>
<rect id="Rectangle_341" x="13" y="17" width="1" height="1" fill="#3D2034"/>
<rect id="Rectangle_342" x="20" y="17" width="1" height="1" fill="#3D2034"/>
<rect id="Rectangle_343" x="20" y="16" width="1" height="1" fill="#3D2034"/>
<rect id="Rectangle_344" x="16" y="19" width="1" height="1" fill="#3D2034"/>
<rect id="Rectangle_345" x="18" y="20" width="1" height="1" fill="#3D2034"/>
<rect id="Rectangle_346" x="9" y="14" width="1" height="1" fill="#62403C"/>
<rect id="Rectangle_347" x="10" y="15" width="1" height="1" fill="#62403C"/>
<rect id="Rectangle_348" x="11" y="16" width="1" height="1" fill="#62403C"/>
<rect id="Rectangle_349" x="11" y="15" width="1" height="1" fill="#62403C"/>
<rect id="Rectangle_350" x="12" y="16" width="1" height="1" fill="#62403C"/>
<rect id="Rectangle_351" x="13" y="16" width="1" height="1" fill="#62403C"/>
<rect id="Rectangle_352" x="14" y="16" width="1" height="1" fill="#62403C"/>
<rect id="Rectangle_353" x="15" y="16" width="1" height="1" fill="#62403C"/>
<rect id="Rectangle_354" x="16" y="16" width="1" height="1" fill="#62403C"/>
<rect id="Rectangle_355" x="17" y="16" width="1" height="1" fill="#62403C"/>
<rect id="Rectangle_356" x="17" y="15" width="1" height="1" fill="#62403C"/>
<rect id="Rectangle_357" x="11" y="5" width="1" height="1" fill="#62403C"/>
<rect id="Rectangle_358" x="12" y="5" width="1" height="1" fill="#62403C"/>
<rect id="Rectangle_359" x="13" y="5" width="1" height="1" fill="#62403C"/>
<rect id="Rectangle_360" x="14" y="5" width="1" height="1" fill="#62403C"/>
<rect id="Rectangle_361" x="15" y="5" width="1" height="1" fill="#62403C"/>
<rect id="Rectangle_362" x="16" y="5" width="1" height="1" fill="#62403C"/>
<rect id="Rectangle_363" x="15" y="4" width="1" height="1" fill="#62403C"/>
<rect id="Rectangle_364" x="16" y="4" width="1" height="1" fill="#62403C"/>
<rect id="Rectangle_365" x="17" y="4" width="1" height="1" fill="#62403C"/>
<rect id="Rectangle_366" x="18" y="4" width="1" height="1" fill="#62403C"/>
<rect id="Rectangle_367" x="18" y="3" width="1" height="1" fill="#62403C"/>
<rect id="Rectangle_368" x="9" y="5" width="1" height="1" fill="#86533E"/>
<rect id="Rectangle_369" x="9" y="4" width="1" height="1" fill="#86533E"/>
<rect id="Rectangle_370" x="10" y="3" width="1" height="1" fill="#86533E"/>
<rect id="Rectangle_371" x="11" y="3" width="1" height="1" fill="#86533E"/>
<rect id="Rectangle_372" x="12" y="3" width="1" height="1" fill="#86533E"/>
<rect id="Rectangle_373" x="13" y="3" width="1" height="1" fill="#86533E"/>
<rect id="Rectangle_374" x="14" y="3" width="1" height="1" fill="#86533E"/>
<rect id="Rectangle_375" x="15" y="3" width="1" height="1" fill="#86533E"/>
<rect id="Rectangle_376" x="16" y="3" width="1" height="1" fill="#86533E"/>
<rect id="Rectangle_377" x="17" y="3" width="1" height="1" fill="#86533E"/>
<rect id="Rectangle_378" x="10" y="4" width="1" height="1" fill="#86533E"/>
<rect id="Rectangle_379" x="11" y="4" width="1" height="1" fill="#86533E"/>
<rect id="Rectangle_380" x="12" y="4" width="1" height="1" fill="#86533E"/>
<rect id="Rectangle_381" x="13" y="4" width="1" height="1" fill="#86533E"/>
<rect id="Rectangle_382" x="14" y="4" width="1" height="1" fill="#86533E"/>
<rect id="Rectangle_383" x="12" y="2" width="1" height="1" fill="#86533E"/>
<rect id="Rectangle_384" x="13" y="2" width="1" height="1" fill="#86533E"/>
<rect id="Rectangle_385" x="14" y="2" width="1" height="1" fill="#86533E"/>
<rect id="Rectangle_386" x="15" y="2" width="1" height="1" fill="#86533E"/>
<rect id="Rectangle_387" x="16" y="2" width="1" height="1" fill="#86533E"/>
<rect id="Rectangle_388" x="17" y="2" width="1" height="1" fill="#86533E"/>
<rect id="Rectangle_389" x="18" y="2" width="1" height="1" fill="#86533E"/>
<rect id="Rectangle_390" x="17" y="1" width="1" height="1" fill="#86533E"/>
<rect id="Rectangle_391" x="18" y="1" width="1" height="1" fill="#86533E"/>
<rect id="Rectangle_392" x="9" y="6" width="1" height="1" fill="#AE745B"/>
<rect id="Rectangle_393" x="10" y="6" width="1" height="1" fill="#AE745B"/>
<rect id="Rectangle_394" x="9" y="7" width="1" height="1" fill="#AE745B"/>
<rect id="Rectangle_395" x="10" y="7" width="1" height="1" fill="#AE745B"/>
<rect id="Rectangle_396" x="9" y="8" width="1" height="1" fill="#AE745B"/>
<rect id="Rectangle_397" x="7" y="15" width="1" height="1" fill="#50AA54"/>
<rect id="Rectangle_398" x="6" y="16" width="1" height="1" fill="#50AA54"/>
<rect id="Rectangle_399" x="7" y="16" width="1" height="1" fill="#50AA54"/>
<rect id="Rectangle_400" x="8" y="16" width="1" height="1" fill="#50AA54"/>
<rect id="Rectangle_401" x="7" y="17" width="1" height="1" fill="#50AA54"/>
<rect id="Rectangle_402" x="9" y="17" width="1" height="1" fill="#50AA54"/>
<rect id="Rectangle_403" x="9" y="18" width="1" height="1" fill="#50AA54"/>
<rect id="Rectangle_404" x="9" y="19" width="1" height="1" fill="#50AA54"/>
<rect id="Rectangle_405" x="10" y="18" width="1" height="1" fill="#50AA54"/>
<rect id="Rectangle_406" x="11" y="18" width="1" height="1" fill="#50AA54"/>
<rect id="Rectangle_407" x="12" y="18" width="1" height="1" fill="#50AA54"/>
<rect id="Rectangle_408" x="10" y="19" width="1" height="1" fill="#50AA54"/>
<rect id="Rectangle_409" x="11" y="19" width="1" height="1" fill="#50AA54"/>
<rect id="Rectangle_410" x="8" y="15" width="1" height="1" fill="#369652"/>
<rect id="Rectangle_411" x="9" y="16" width="1" height="1" fill="#369652"/>
<rect id="Rectangle_412" x="10" y="17" width="1" height="1" fill="#369652"/>
<rect id="Rectangle_413" x="8" y="17" width="1" height="1" fill="#369652"/>
<rect id="Rectangle_414" x="12" y="19" width="1" height="1" fill="#EAB74F"/>
<rect id="Rectangle_415" x="14" y="18" width="1" height="1" fill="#B3B8B5"/>
<rect id="Rectangle_416" x="15" y="18" width="1" height="1" fill="#B3B8B5"/>
<rect id="Rectangle_417" x="15" y="20" width="1" height="1" fill="#B3B8B5"/>
<rect id="Rectangle_418" x="16" y="21" width="1" height="1" fill="#B3B8B5"/>
<rect id="Rectangle_419" x="13" y="22" width="1" height="1" fill="#B3B8B5"/>
<rect id="Rectangle_420" x="14" y="23" width="1" height="1" fill="#B3B8B5"/>
<rect id="Rectangle_421" x="13" y="24" width="1" height="1" fill="#B3B8B5"/>
<rect id="Rectangle_422" x="12" y="24" width="1" height="1" fill="#B3B8B5"/>
<rect id="Rectangle_423" x="11" y="25" width="1" height="1" fill="#B3B8B5"/>
<rect id="Rectangle_424" x="10" y="25" width="1" height="1" fill="#B3B8B5"/>
<rect id="Rectangle_425" x="9" y="25" width="1" height="1" fill="#B3B8B5"/>
<rect id="Rectangle_426" x="8" y="25" width="1" height="1" fill="#B3B8B5"/>
<rect id="Rectangle_427" x="8" y="24" width="1" height="1" fill="#4F374A"/>
<rect id="Rectangle_428" x="9" y="24" width="1" height="1" fill="#4F374A"/>
<rect id="Rectangle_429" x="10" y="24" width="1" height="1" fill="#4F374A"/>
<rect id="Rectangle_430" x="11" y="24" width="1" height="1" fill="#4F374A"/>
<rect id="Rectangle_431" x="12" y="23" width="1" height="1" fill="#4F374A"/>
<rect id="Rectangle_432" x="12" y="22" width="1" height="1" fill="#4F374A"/>
<rect id="Rectangle_433" x="11" y="21" width="1" height="1" fill="#4F374A"/>
<rect id="Rectangle_434" x="7" y="19" width="1" height="1" fill="#4F374A"/>
<rect id="Rectangle_435" x="8" y="19" width="1" height="1" fill="#4F374A"/>
<rect id="Rectangle_436" x="8" y="18" width="1" height="1" fill="#4F374A"/>
<rect id="Rectangle_437" x="9" y="20" width="1" height="1" fill="#3B3441"/>
<rect id="Rectangle_438" x="10" y="20" width="1" height="1" fill="#3B3441"/>
<rect id="Rectangle_439" x="11" y="20" width="1" height="1" fill="#3B3441"/>
<rect id="Rectangle_440" x="12" y="20" width="1" height="1" fill="#3B3441"/>
<rect id="Rectangle_441" x="13" y="19" width="1" height="1" fill="#3B3441"/>
<rect id="Rectangle_442" x="13" y="18" width="1" height="1" fill="#3B3441"/>
<rect id="Rectangle_443" x="17" y="20" width="1" height="1" fill="#3B3441"/>
<rect id="Rectangle_444" x="18" y="19" width="1" height="1" fill="#3B3441"/>
<rect id="Rectangle_445" x="19" y="18" width="1" height="1" fill="#3B3441"/>
</g>
<defs>
<clipPath id="clip0">
<rect width="27" height="30" fill="white"/>
</clipPath>
</defs>
</svg>
